<svg version="1.0" xmlns="http://www.w3.org/2000/svg"
 width="192.000000pt" height="192.000000pt" viewBox="0 0 192.000000 192.000000"
 preserveAspectRatio="xMidYMid meet">
<g transform="translate(0.000000,192.000000) scale(0.100000,-0.100000)">
<path class="icon-svg" d="M637 1466 c-14 -13 -29 -35 -32 -49 -7 -26 15 -79 37 -94 7 -4 65
-10 128 -13 l115 -5 3 -48 c3 -45 2 -48 -27 -58 -27 -10 -30 -15 -33 -62 l-3
-52 -160 0 -160 0 -19 36 c-25 46 -66 66 -106 49 -59 -25 -60 -28 -60 -379 l0
-319 26 -31 c45 -54 117 -36 144 35 l10 24 452 -2 452 -3 12 -22 c34 -68 87
-83 136 -36 l28 27 0 331 c0 331 0 332 -22 353 -52 48 -106 35 -142 -33 l-19
-35 -161 2 -161 3 -5 55 c-4 48 -8 55 -30 60 -23 5 -25 11 -25 55 l0 50 116 5
c124 5 139 11 165 62 13 25 13 31 -1 57 -31 61 -32 61 -346 61 l-286 0 -26
-24z"/>
</g>
</svg>
