<?xml version="1.0" standalone="no"?>
<!DOCTYPE svg PUBLIC "-//W3C//DTD SVG 20010904//EN"
 "http://www.w3.org/TR/2001/REC-SVG-20010904/DTD/svg10.dtd">
<svg version="1.0" xmlns="http://www.w3.org/2000/svg"
 width="192.000000pt" height="192.000000pt" viewBox="0 0 192.000000 192.000000"
 preserveAspectRatio="xMidYMid meet">
<metadata>
Created by potrace 1.10, written by Peter Selinger 2001-2011
</metadata>
<g transform="translate(0.000000,192.000000) scale(0.100000,-0.100000)"
fill="#000000" stroke="none">
<path d="M997 1557 c-43 -10 -48 -13 -45 -36 3 -22 9 -27 43 -32 74 -11 142
-62 181 -135 l19 -34 -158 -158 c-135 -135 -164 -160 -202 -170 -40 -10 -74
-41 -278 -244 -128 -128 -240 -245 -250 -260 -24 -39 -21 -85 9 -125 44 -58
103 -77 153 -49 13 7 133 123 267 256 215 215 244 248 244 275 0 27 22 53 154
188 85 86 158 157 163 157 4 0 16 -17 26 -38 21 -46 113 -142 135 -142 23 0
182 164 182 188 0 23 -124 142 -147 142 -8 0 -35 22 -59 49 -24 27 -61 56 -81
66 -21 10 -51 27 -68 39 -54 39 -164 77 -215 75 -14 -1 -47 -6 -73 -12z"/>
</g>
</svg>
