<?xml version="1.0" standalone="no"?>
<!DOCTYPE svg PUBLIC "-//W3C//DTD SVG 20010904//EN"
 "http://www.w3.org/TR/2001/REC-SVG-20010904/DTD/svg10.dtd">
<svg version="1.0" xmlns="http://www.w3.org/2000/svg"
 width="192.000000pt" height="192.000000pt" viewBox="0 0 192.000000 192.000000"
 preserveAspectRatio="xMidYMid meet">
<metadata>
Created by potrace 1.10, written by Peter Selinger 2001-2011
</metadata>
<g transform="translate(0.000000,192.000000) scale(0.100000,-0.100000)"
fill="#000000" stroke="none">
<path d="M321 1779 c-28 -29 -51 -57 -51 -64 0 -7 17 -34 38 -61 65 -84 65
-86 66 -338 1 -178 -2 -233 -12 -243 -9 -9 -43 -13 -107 -13 -52 0 -106 -5
-120 -12 l-25 -11 0 -253 c0 -216 2 -255 16 -268 13 -14 55 -16 309 -16 292 0
294 0 309 22 13 19 16 61 16 259 l0 238 -26 20 c-23 18 -41 21 -125 21 -54 0
-100 4 -103 8 -8 13 -9 342 -1 350 4 4 16 -4 27 -18 25 -31 109 -129 125 -145
7 -7 44 -50 84 -96 39 -46 75 -86 78 -89 4 -3 51 -57 105 -120 55 -63 103
-116 108 -118 13 -5 10 -44 -5 -61 -25 -30 -37 -97 -32 -173 11 -136 16 -140
140 -148 79 -5 80 -5 83 -34 2 -16 -2 -32 -10 -37 -7 -5 -123 -9 -259 -9 -177
0 -248 -3 -257 -12 -8 -8 -12 -58 -12 -160 l0 -148 568 2 567 3 3 144 c2 95
-1 148 -9 157 -8 9 -43 14 -116 16 -88 3 -108 6 -117 21 -21 32 4 52 70 55 79
3 101 9 124 32 19 19 20 35 20 316 0 263 -2 299 -17 325 -26 44 -66 51 -251
47 l-163 -3 -35 -38 c-19 -20 -43 -37 -52 -37 -14 0 -242 195 -622 530 -188
166 -242 210 -260 210 -10 0 -42 -23 -69 -51z m1304 -934 l0 -160 -217 -3
-218 -2 0 24 c0 13 7 30 16 37 9 7 37 40 62 74 25 33 56 71 68 85 12 14 39 44
59 68 l38 43 96 -3 96 -3 0 -160z m-985 75 c6 -12 10 -61 8 -118 -4 -115 -12
-123 -80 -65 -103 87 -142 119 -174 142 -19 13 -34 32 -34 43 0 17 11 18 135
18 124 0 135 -1 145 -20z m-350 -100 c3 -3 30 -25 60 -50 30 -25 57 -47 60
-50 3 -3 24 -20 48 -39 72 -56 62 -62 -95 -59 l-138 3 -3 104 c-4 135 9 152
68 91z"/>
</g>
</svg>
