<svg version="1.0" xmlns="http://www.w3.org/2000/svg"
 width="192.000000pt" height="192.000000pt" viewBox="0 0 192.000000 192.000000"
 preserveAspectRatio="xMidYMid meet">
<g transform="translate(0.000000,192.000000) scale(0.100000,-0.100000)">
<path class="icon-svg" d="M803 1598 c-12 -14 -15 -26 -78 -248 -58 -209 -77 -273 -91 -315 -8
-23 -14 -50 -14 -61 0 -11 -7 -30 -16 -42 -13 -19 -13 -26 -3 -38 10 -12 31
-15 96 -13 101 4 113 -4 91 -58 -14 -36 -29 -86 -64 -213 -9 -30 -20 -68 -26
-85 -5 -16 -13 -46 -17 -65 -4 -19 -13 -52 -19 -72 -40 -127 -40 -128 -9 -128
16 0 38 17 68 52 24 29 58 68 74 87 45 53 105 126 150 185 41 53 78 96 106
125 8 9 30 36 49 61 19 25 44 56 56 70 76 86 104 123 99 131 -4 5 -67 9 -141
9 -126 0 -134 1 -134 19 0 11 4 23 10 26 5 3 21 30 36 58 14 29 34 66 44 82
11 17 22 37 26 45 3 8 10 22 15 30 5 8 11 21 14 28 13 32 17 39 35 67 11 17
22 36 25 43 3 6 7 18 10 25 3 6 14 26 25 42 11 17 22 36 25 43 3 6 7 18 10 25
3 6 14 26 24 42 36 56 42 55 -223 55 -183 0 -246 -3 -253 -12z"/>
</g>
</svg>
