<?xml version="1.0" standalone="no"?>
<!DOCTYPE svg PUBLIC "-//W3C//DTD SVG 20010904//EN"
 "http://www.w3.org/TR/2001/REC-SVG-20010904/DTD/svg10.dtd">
<svg version="1.0" xmlns="http://www.w3.org/2000/svg"
 width="192.000000pt" height="192.000000pt" viewBox="0 0 192.000000 192.000000"
 preserveAspectRatio="xMidYMid meet">
<metadata>
Created by potrace 1.10, written by Peter Selinger 2001-2011
</metadata>
<g transform="translate(0.000000,192.000000) scale(0.100000,-0.100000)"
fill="#000000" stroke="none">
<path d="M345 1682 c-43 -37 -45 -54 -45 -461 0 -363 -1 -389 -18 -404 -10
-10 -23 -17 -29 -17 -12 0 -113 -94 -113 -106 0 -4 -6 -15 -13 -23 -23 -27
-49 -139 -42 -180 22 -130 91 -220 208 -273 36 -17 87 -18 604 -18 640 0 602
-5 703 85 51 45 70 50 70 17 0 -9 7 -36 16 -59 16 -42 17 -43 65 -43 54 0 63
8 50 42 -18 47 -81 265 -114 393 -39 151 -72 393 -83 618 -6 111 -7 117 -29
123 -12 3 -36 4 -51 2 l-29 -3 0 -85 c0 -47 2 -116 5 -155 4 -62 3 -70 -14
-73 -11 -2 -33 10 -55 30 -71 68 -73 68 -270 68 -99 0 -186 3 -195 6 -14 5
-16 32 -16 190 0 203 -6 230 -67 285 -66 60 -59 59 -298 59 -193 -1 -222 -3
-240 -18z m443 -102 c18 -11 37 -32 42 -46 15 -38 13 -347 -2 -362 -13 -13
-371 -18 -402 -6 -14 5 -16 34 -16 213 0 114 3 211 7 214 3 4 81 7 172 7 148
0 170 -2 199 -20z m742 -671 c10 -34 9 -44 -3 -57 -24 -23 -37 -5 -37 49 0 63
24 68 40 8z m-82 -189 c86 -29 152 -117 152 -201 0 -85 -79 -186 -162 -207
-66 -17 -1024 -17 -1082 0 -53 15 -102 53 -132 100 -19 30 -24 51 -24 104 0
74 16 111 68 159 70 64 75 64 625 65 470 0 501 -1 555 -20z"/>
<path d="M345 602 c-60 -53 -59 -116 4 -169 38 -33 89 -30 128 6 54 49 56 109
5 156 -33 31 -105 35 -137 7z"/>
<path d="M650 578 c-35 -47 -37 -65 -13 -106 38 -66 112 -81 165 -33 29 26 33
36 33 79 0 73 -29 102 -102 102 -51 0 -54 -2 -83 -42z"/>
<path d="M979 588 c-42 -47 -40 -96 6 -143 47 -46 90 -48 140 -4 31 27 35 37
35 78 0 66 -36 101 -104 101 -40 0 -51 -5 -77 -32z"/>
<path d="M1306 591 c-21 -22 -27 -39 -28 -72 0 -37 5 -47 36 -76 50 -46 93
-45 141 2 48 49 49 98 2 143 -27 26 -41 32 -78 32 -37 0 -50 -5 -73 -29z"/>
</g>
</svg>
