<?xml version="1.0" standalone="no"?>
<!DOCTYPE svg PUBLIC "-//W3C//DTD SVG 20010904//EN"
 "http://www.w3.org/TR/2001/REC-SVG-20010904/DTD/svg10.dtd">
<svg version="1.0" xmlns="http://www.w3.org/2000/svg"
 width="192.000000pt" height="192.000000pt" viewBox="0 0 192.000000 192.000000"
 preserveAspectRatio="xMidYMid meet">
<metadata>
Created by potrace 1.10, written by Peter Selinger 2001-2011
</metadata>
<g transform="translate(0.000000,192.000000) scale(0.100000,-0.100000)"
fill="#000000" stroke="none">
<path d="M813 1530 c-118 -35 -193 -79 -279 -165 -88 -86 -129 -158 -165 -285
-38 -131 -16 -310 52 -430 5 -8 14 -26 20 -40 15 -36 178 -192 222 -212 133
-63 191 -78 301 -78 188 0 372 88 480 229 38 50 54 77 88 144 72 145 62 384
-23 527 -5 8 -14 26 -19 39 -6 13 -48 61 -93 106 -88 88 -160 130 -287 166
-84 24 -213 24 -297 -1z m246 -146 c121 -29 201 -80 276 -179 85 -111 113
-249 79 -379 -19 -74 -19 -73 -44 -111 -11 -16 -23 -36 -26 -44 -13 -26 -80
-89 -132 -124 -153 -103 -368 -96 -517 18 -99 75 -150 155 -179 276 -20 82
-20 105 1 193 41 173 166 299 343 347 82 22 117 23 199 3z"/>
<path d="M907 1292 c-28 -30 -21 -76 14 -106 37 -31 42 -32 85 -5 29 17 34 26
34 58 0 24 -7 44 -18 54 -26 23 -94 22 -115 -1z"/>
<path d="M708 1234 c-34 -18 -61 -60 -53 -84 9 -27 53 -60 82 -60 13 0 35 11
48 25 30 29 32 64 5 97 -25 32 -50 39 -82 22z"/>
<path d="M1153 1222 c-13 -9 -25 -31 -29 -49 -5 -26 -1 -37 21 -59 22 -22 33
-25 61 -21 37 6 73 40 74 70 0 26 -54 77 -82 77 -13 0 -33 -8 -45 -18z"/>
<path d="M956 1028 c-3 -7 -12 -49 -21 -93 -9 -44 -23 -110 -31 -146 -7 -37
-14 -88 -14 -113 0 -53 12 -59 96 -54 l49 3 3 45 c3 40 -14 154 -38 250 -4 19
-11 54 -15 78 -6 40 -21 56 -29 30z"/>
</g>
</svg>
