<?xml version="1.0" standalone="no"?>
<!DOCTYPE svg PUBLIC "-//W3C//DTD SVG 20010904//EN"
 "http://www.w3.org/TR/2001/REC-SVG-20010904/DTD/svg10.dtd">
<svg version="1.0" xmlns="http://www.w3.org/2000/svg"
 width="192.000000pt" height="192.000000pt" viewBox="0 0 192.000000 192.000000"
 preserveAspectRatio="xMidYMid meet">
<metadata>
Created by potrace 1.10, written by Peter Selinger 2001-2011
</metadata>
<g transform="translate(0.000000,192.000000) scale(0.100000,-0.100000)"
fill="#000000" stroke="none">
<path d="M645 1531 c-63 -26 -97 -47 -136 -83 -42 -40 -99 -112 -99 -126 0
-24 -45 -42 -103 -42 -33 0 -72 -7 -90 -16 -43 -22 -102 -88 -122 -138 -9 -23
-23 -56 -31 -74 -20 -47 -19 -201 2 -249 45 -103 59 -126 106 -167 55 -48 71
-54 163 -64 53 -6 61 -10 73 -35 25 -52 129 -152 192 -185 l60 -32 334 0 c284
0 335 2 346 15 7 8 17 15 22 15 30 0 147 113 175 170 22 43 31 50 66 50 59 0
111 25 164 78 29 29 53 60 53 70 0 9 7 26 15 36 21 27 22 315 1 354 -41 82
-51 99 -70 117 -41 40 -75 55 -125 55 -51 0 -72 13 -52 33 6 6 11 14 11 18 0
18 -104 132 -143 156 -93 60 -113 62 -457 62 -270 -1 -321 -3 -355 -18z m751
-93 c22 -14 48 -34 57 -43 38 -38 26 -40 -196 -35 l-213 5 -47 41 c-26 23 -47
47 -47 54 0 9 46 11 203 8 198 -4 203 -4 243 -30z m89 -137 c3 -5 -8 -24 -25
-42 -16 -19 -30 -37 -30 -42 0 -5 -10 -20 -22 -33 -23 -23 -25 -24 -235 -24
-116 0 -214 4 -217 9 -3 5 1 14 9 21 8 7 15 17 15 23 0 5 16 30 36 53 l35 44
214 0 c120 0 216 -4 220 -9z m-660 -103 c17 -7 41 -25 55 -40 l24 -28 263 0
c145 0 263 3 263 8 0 4 13 22 29 40 29 31 33 32 105 32 41 0 86 -4 101 -10 37
-14 81 -65 101 -119 24 -65 30 -221 10 -263 -9 -17 -16 -39 -16 -49 0 -10 -22
-40 -49 -68 -44 -45 -55 -51 -90 -51 -47 0 -51 13 -26 73 10 24 15 70 15 132
l0 95 -312 0 c-172 0 -318 -4 -325 -8 -7 -4 -15 -35 -19 -67 -4 -33 -13 -69
-20 -80 -8 -11 -14 -27 -14 -36 0 -10 -24 -38 -52 -63 l-53 -46 -187 0 c-104
0 -188 3 -188 6 0 3 12 23 28 43 63 84 67 96 65 236 -1 137 -5 154 -61 232
-12 17 -22 35 -22 40 0 12 340 4 375 -9z m-458 0 c50 -21 81 -64 113 -154 25
-71 26 -160 3 -209 l-17 -35 -158 0 c-142 0 -159 2 -166 18 -4 9 -7 62 -7 118
0 78 5 110 20 144 48 106 132 153 212 118z m1198 -304 c9 -9 14 -22 12 -28 -2
-6 -10 -36 -16 -66 -20 -89 -44 -164 -58 -181 -7 -8 -13 -22 -13 -30 0 -8 -24
-43 -53 -79 -39 -47 -69 -73 -112 -95 -59 -29 -64 -30 -227 -33 -147 -3 -168
-1 -168 12 0 9 5 16 12 16 14 0 98 80 98 93 0 5 14 26 30 47 17 21 30 44 30
51 0 8 7 23 15 33 8 11 15 31 15 45 1 14 7 37 15 51 8 14 14 52 15 87 0 91 4
93 217 93 145 0 174 -2 188 -16z"/>
</g>
</svg>
