<?xml version="1.0" standalone="no"?>
<!DOCTYPE svg PUBLIC "-//W3C//DTD SVG 20010904//EN"
 "http://www.w3.org/TR/2001/REC-SVG-20010904/DTD/svg10.dtd">
<svg version="1.0" xmlns="http://www.w3.org/2000/svg"
 width="192.000000pt" height="192.000000pt" viewBox="0 0 192.000000 192.000000"
 preserveAspectRatio="xMidYMid meet">
<metadata>
Created by potrace 1.10, written by Peter Selinger 2001-2011
</metadata>
<g transform="translate(0.000000,192.000000) scale(0.100000,-0.100000)"
fill="#000000" stroke="none">
<path d="M475 1526 c-17 -13 -15 -17 39 -70 l58 -57 -7 -77 c-4 -42 -10 -80
-13 -83 -4 -4 -37 -9 -73 -12 -75 -7 -94 2 -157 72 -23 26 -44 41 -51 37 -17
-11 -13 -93 6 -134 26 -58 70 -108 117 -136 37 -21 57 -26 116 -26 85 0 117
14 181 81 132 138 65 354 -124 405 -65 17 -69 17 -92 0z"/>
<path d="M1167 1450 c-60 -61 -67 -72 -57 -90 6 -11 14 -20 18 -20 4 0 30 -22
58 -48 29 -26 78 -69 109 -97 32 -27 106 -94 164 -147 58 -54 112 -98 119 -98
17 0 92 77 92 95 0 9 -10 26 -23 38 -20 19 -153 166 -222 246 -11 13 -47 53
-80 89 -33 35 -66 73 -73 83 -7 11 -19 19 -25 19 -7 -1 -43 -32 -80 -70z"/>
<path d="M1473 1393 c-24 -9 -13 -42 26 -85 39 -42 40 -42 60 -24 29 27 27 39
-19 80 -41 36 -45 38 -67 29z"/>
<path d="M1110 1039 c-69 -73 -156 -162 -193 -198 -246 -237 -455 -450 -462
-470 -10 -34 23 -75 65 -79 31 -3 52 17 426 392 217 217 394 401 394 409 0 16
-73 77 -92 77 -8 0 -70 -59 -138 -131z"/>
<path d="M708 1079 l-56 -59 96 -94 96 -94 48 47 c79 74 79 68 -20 170 -48 50
-92 91 -97 90 -6 0 -35 -27 -67 -60z"/>
<path d="M1062 737 c-29 -29 -52 -57 -52 -63 0 -16 107 -124 123 -124 8 0 25
15 37 34 13 18 36 42 52 52 15 10 28 24 28 30 0 11 -117 124 -129 124 -4 0
-30 -24 -59 -53z"/>
<path d="M1291 630 c-54 -30 -119 -105 -132 -152 -39 -148 33 -277 177 -314
114 -30 226 22 287 133 23 41 24 184 2 203 -8 7 -15 18 -15 25 0 19 -67 83
-110 105 -53 27 -161 27 -209 0z m202 -139 l62 -60 -18 -29 c-9 -17 -17 -41
-17 -54 0 -29 -22 -52 -73 -73 -64 -27 -90 -20 -147 35 -46 45 -52 55 -47 83
12 81 50 135 97 137 14 1 34 5 45 10 32 14 34 13 98 -49z"/>
<path d="M1349 480 c-32 -17 -38 -25 -44 -67 -7 -46 -5 -49 30 -81 25 -23 42
-31 53 -26 9 4 30 9 45 12 32 5 57 45 57 90 0 33 -55 92 -85 92 -11 -1 -36
-10 -56 -20z"/>
</g>
</svg>
