<svg version="1.0" xmlns="http://www.w3.org/2000/svg"
 width="192.000000pt" height="192.000000pt" viewBox="0 0 192.000000 192.000000"
 preserveAspectRatio="xMidYMid meet">
<g transform="translate(0.000000,192.000000) scale(0.100000,-0.100000)">
<path class="icon-svg" d="M920 1597 c0 -111 -3 -120 -52 -132 -41 -11 -91 -68 -112 -129 -18
-51 -18 -57 -2 -80 20 -31 21 -94 2 -138 -8 -18 -21 -49 -30 -70 -9 -20 -16
-43 -16 -52 0 -19 -33 -33 -71 -31 -34 2 -49 13 -49 35 0 20 -17 36 -27 26 -7
-7 -11 -136 -5 -153 8 -23 31 -13 34 15 3 23 8 28 37 30 45 5 57 -9 38 -45 -8
-15 -23 -48 -32 -73 -9 -25 -23 -60 -31 -78 -8 -18 -14 -40 -14 -50 0 -9 -7
-26 -15 -36 -8 -11 -15 -27 -15 -36 0 -9 -7 -31 -16 -49 -11 -22 -14 -44 -10
-69 4 -20 7 -46 7 -57 1 -31 -20 -118 -31 -129 -12 -12 -13 -63 -2 -70 11 -6
52 48 52 67 0 8 7 20 15 27 8 7 15 18 15 24 0 7 26 40 58 74 32 35 65 83 75
110 10 26 25 65 34 87 8 22 21 54 28 70 7 17 20 49 29 73 9 23 23 61 32 85 16
41 25 62 58 140 9 21 16 46 16 56 0 10 6 24 14 30 17 14 46 -10 46 -39 0 -19
18 -66 46 -123 8 -16 14 -35 14 -42 0 -7 6 -26 14 -42 23 -45 46 -100 46 -111
0 -6 6 -23 14 -39 8 -15 21 -46 29 -68 39 -107 54 -134 104 -185 31 -31 70
-87 91 -129 21 -40 42 -73 47 -73 17 1 18 33 2 71 -35 86 -45 164 -26 205 10
20 9 30 -5 50 -9 14 -16 34 -16 44 0 10 -7 27 -15 38 -8 10 -15 27 -15 36 0
10 -6 32 -14 50 -8 18 -22 53 -31 78 -9 25 -23 58 -31 73 -21 43 -18 57 15 57
27 0 57 -21 46 -32 -3 -3 2 -11 10 -18 26 -22 36 2 33 80 -3 82 -18 99 -43 51
-13 -27 -21 -31 -56 -31 -34 0 -41 4 -49 28 -11 29 -18 45 -44 105 -9 21 -16
45 -16 54 0 9 -7 24 -15 33 -12 13 -13 23 -5 44 34 92 -10 183 -115 236 -30
15 -30 15 -35 120 -4 89 -8 105 -22 108 -16 3 -18 -7 -18 -101z m107 -222 c38
-40 43 -50 40 -84 -4 -52 -29 -86 -79 -112 -37 -19 -46 -20 -78 -9 -42 15 -67
36 -86 72 -42 81 24 178 120 178 34 0 46 -7 83 -45z"/>
<path d="M896 1334 c-34 -33 -4 -104 43 -104 22 0 61 44 61 70 0 42 -72 66
-104 34z"/>
</g>
</svg>
