<svg version="1.0" xmlns="http://www.w3.org/2000/svg"
 width="192.000000pt" height="192.000000pt" viewBox="0 0 192.000000 192.000000"
 preserveAspectRatio="xMidYMid meet">
<g transform="translate(0.000000,192.000000) scale(0.100000,-0.100000)">
<path class="icon-svg" d="M830 1683 c-50 -21 -60 -38 -48 -76 5 -18 13 -70 17 -117 5 -47 10
-92 12 -100 3 -10 -3 -15 -16 -15 -16 0 -21 9 -26 45 -4 25 -12 58 -18 73 -6
16 -11 43 -11 62 0 46 -9 65 -30 65 -19 0 -135 -118 -151 -154 -5 -11 -13 -28
-18 -36 -29 -51 -40 -81 -45 -130 -10 -75 -21 -102 -56 -125 -37 -25 -38 -47
-2 -77 87 -73 278 -114 522 -112 133 1 323 24 377 45 106 42 153 76 153 109 0
11 -3 20 -8 20 -4 0 -19 11 -33 24 -20 18 -28 41 -38 97 -16 97 -66 199 -137
277 -72 80 -95 81 -107 7 -5 -27 -14 -70 -22 -95 -8 -25 -15 -56 -17 -70 -2
-14 -9 -25 -18 -25 -19 0 -16 101 6 197 9 38 14 74 11 81 -6 16 -99 49 -119
42 -19 -7 -28 -102 -28 -287 0 -106 -3 -130 -15 -134 -8 -4 -22 -1 -30 6 -12
10 -15 47 -15 204 0 229 -3 236 -90 199z"/>
<path d="M507 994 c-4 -4 -7 -21 -7 -37 0 -17 -8 -35 -17 -43 -15 -10 -18 -27
-17 -101 1 -78 5 -96 33 -153 59 -119 157 -190 264 -190 47 0 56 3 75 30 50
67 116 74 171 17 42 -42 43 -94 2 -139 -26 -29 -36 -33 -79 -33 -33 0 -56 6
-68 17 -13 11 -42 18 -94 20 -41 2 -83 8 -92 12 -13 6 -20 3 -24 -8 -11 -28
116 -139 194 -169 24 -10 70 -17 107 -17 53 0 78 6 131 32 64 31 144 106 165
153 5 11 13 27 18 35 24 43 41 79 41 90 0 6 20 38 45 70 25 32 45 63 45 70 0
6 8 23 17 37 26 39 26 202 1 230 -10 11 -18 31 -18 46 0 31 -13 41 -37 29 -37
-19 -111 -34 -213 -43 -122 -11 -481 -2 -519 13 -14 6 -39 14 -56 18 -16 4
-37 11 -46 14 -8 4 -18 3 -22 0z"/>
</g>
</svg>
