<?xml version="1.0" standalone="no"?>
<!DOCTYPE svg PUBLIC "-//W3C//DTD SVG 20010904//EN"
 "http://www.w3.org/TR/2001/REC-SVG-20010904/DTD/svg10.dtd">
<svg version="1.0" xmlns="http://www.w3.org/2000/svg"
 width="192.000000pt" height="192.000000pt" viewBox="0 0 192.000000 192.000000"
 preserveAspectRatio="xMidYMid meet">
<metadata>
Created by potrace 1.10, written by Peter Selinger 2001-2011
</metadata>
<g transform="translate(0.000000,192.000000) scale(0.100000,-0.100000)"
fill="#000000" stroke="none">
<path d="M472 1568 c-17 -17 -17 -299 0 -316 14 -14 1044 -17 1066 -4 9 7 12
47 10 168 l-3 159 -530 3 c-405 2 -534 -1 -543 -10z"/>
<path d="M357 1423 c-4 -3 -7 -68 -7 -144 0 -162 -6 -155 123 -169 214 -24
309 -33 392 -37 49 -3 95 -9 102 -15 9 -7 13 -44 13 -118 0 -113 -5 -125 -47
-114 -10 3 -31 1 -46 -5 l-27 -11 0 -221 0 -222 26 -35 c15 -19 47 -43 71 -54
49 -22 89 -15 138 23 53 42 57 64 57 293 0 192 -2 211 -19 224 -10 7 -29 11
-43 9 -54 -11 -60 2 -60 138 0 108 -2 125 -17 133 -29 15 -331 50 -506 59
-107 6 -106 5 -103 149 2 54 -1 105 -7 112 -10 13 -30 16 -40 5z"/>
</g>
</svg>
