<?xml version="1.0" standalone="no"?>
<!DOCTYPE svg PUBLIC "-//W3C//DTD SVG 20010904//EN"
 "http://www.w3.org/TR/2001/REC-SVG-20010904/DTD/svg10.dtd">
<svg version="1.0" xmlns="http://www.w3.org/2000/svg"
 width="192.000000pt" height="192.000000pt" viewBox="0 0 192.000000 192.000000"
 preserveAspectRatio="xMidYMid meet">
<metadata>
Created by potrace 1.10, written by Peter Selinger 2001-2011
</metadata>
<g transform="translate(0.000000,192.000000) scale(0.100000,-0.100000)"
fill="#000000" stroke="none">
<path d="M207 1393 c-4 -3 -7 -30 -7 -60 0 -52 4 -58 37 -54 22 3 25 -22 24
-194 -2 -201 6 -235 72 -288 l41 -32 207 -3 208 -4 10 -29 c10 -29 13 -30 63
-27 l53 3 0 200 0 200 -53 3 c-51 3 -53 2 -63 -28 l-11 -31 -112 3 -111 3 -3
103 -3 102 28 11 c15 6 30 14 33 20 5 7 5 68 1 102 -1 9 -405 10 -414 0z"/>
<path d="M1014 1097 c-2 -7 -3 -98 -2 -202 l3 -190 52 -3 c49 -3 53 -1 68 28
l16 31 107 -3 107 -3 0 -110 0 -110 -28 -3 c-27 -3 -28 -5 -25 -60 l3 -57 205
0 205 0 3 57 c3 55 2 57 -25 60 l-28 3 -5 195 c-6 218 -11 237 -77 287 l-36
28 -207 3 -206 4 -11 29 c-10 27 -15 29 -62 29 -33 0 -53 -5 -57 -13z"/>
</g>
</svg>
