<?xml version="1.0" standalone="no"?>
<!DOCTYPE svg PUBLIC "-//W3C//DTD SVG 20010904//EN"
 "http://www.w3.org/TR/2001/REC-SVG-20010904/DTD/svg10.dtd">
<svg version="1.0" xmlns="http://www.w3.org/2000/svg"
 width="192.000000pt" height="192.000000pt" viewBox="0 0 192.000000 192.000000"
 preserveAspectRatio="xMidYMid meet">
<metadata>
Created by potrace 1.10, written by Peter Selinger 2001-2011
</metadata>
<g transform="translate(0.000000,192.000000) scale(0.100000,-0.100000)"
fill="#000000" stroke="none">
<path d="M817 1830 c-157 -32 -261 -84 -366 -184 -110 -106 -221 -323 -221
-433 0 -45 27 -178 45 -225 42 -107 51 -126 76 -165 71 -109 84 -165 69 -303
-15 -133 -17 -141 -35 -117 -8 11 -23 17 -36 15 -30 -4 -49 -70 -49 -171 0
-63 3 -79 16 -84 30 -11 49 12 60 76 16 87 24 87 24 -1 0 -106 7 -132 50 -178
37 -40 37 -40 112 -40 70 0 77 2 113 33 35 30 39 38 39 85 1 57 2 58 30 37 27
-20 370 -22 383 -3 4 7 6 39 4 70 -2 35 4 77 14 109 11 33 14 54 7 61 -6 6
-93 8 -226 6 l-217 -3 7 25 c15 51 -7 236 -36 310 -12 30 -24 64 -28 75 -5 17
-42 87 -72 135 -47 76 -52 95 -52 190 1 75 5 105 22 143 32 72 136 172 213
206 219 97 476 13 582 -189 27 -50 29 -64 29 -160 0 -111 3 -101 -66 -220 -51
-89 -88 -170 -88 -197 0 -10 -7 -40 -16 -68 -11 -33 -17 -99 -19 -195 -2 -80
-8 -161 -14 -180 -25 -80 -2 -216 43 -252 16 -14 41 -18 107 -18 100 0 113 9
148 98 18 45 21 75 21 195 0 78 -5 171 -11 206 -9 60 -7 86 16 196 2 11 21 47
42 80 21 33 43 69 50 80 19 31 52 104 68 152 22 63 20 222 -4 303 -33 114
-118 243 -226 342 -175 159 -364 208 -608 158z"/>
<path d="M1523 483 c-4 -10 -7 -102 -5 -205 3 -171 5 -188 21 -188 37 0 41 19
41 190 0 163 -8 208 -37 217 -6 2 -15 -4 -20 -14z"/>
</g>
</svg>
