<svg version="1.0" xmlns="http://www.w3.org/2000/svg"
 width="192.000000pt" height="192.000000pt" viewBox="0 0 192.000000 192.000000"
 preserveAspectRatio="xMidYMid meet">
<g transform="translate(0.000000,192.000000) scale(0.100000,-0.100000)">
<path class="icon-svg" d="M430 1710 c-7 -14 -10 -245 -10 -731 1 -706 1 -711 -19 -731 -24 -21
-27 -48 -9 -66 16 -16 127 -16 132 1 3 6 7 24 10 38 4 16 40 56 101 108 111
96 94 97 208 -13 60 -56 67 -67 58 -85 -14 -25 -14 -27 5 -45 21 -21 117 -22
134 -1 7 8 9 26 6 43 -6 25 0 34 76 98 46 39 88 73 94 77 6 3 26 -8 44 -24 18
-17 57 -49 86 -71 49 -37 53 -43 56 -86 l3 -47 70 0 70 0 3 31 c2 20 -4 36
-18 49 -20 18 -20 27 -20 460 0 442 0 443 -21 448 -14 4 -29 -2 -46 -19 l-24
-24 -202 2 -202 3 -5 294 c-5 270 -6 295 -23 305 -28 17 -50 -18 -43 -66 9
-56 -3 -59 -236 -56 l-203 3 -3 50 c-2 27 -8 55 -14 62 -16 19 -46 16 -58 -7z
m460 -171 c0 -17 -163 -170 -177 -167 -20 5 -174 159 -168 169 9 14 345 12
345 -2z m-293 -121 c75 -74 98 -108 75 -108 -5 0 -43 -34 -85 -77 -42 -42 -80
-74 -83 -70 -4 4 -7 217 -4 330 0 17 19 3 97 -75z m346 -88 c0 -123 -3 -165
-12 -165 -14 0 -171 154 -171 167 0 15 160 170 171 166 8 -3 12 -57 12 -168z
m-161 -95 c32 -30 69 -62 83 -71 14 -9 25 -23 23 -32 -2 -12 -31 -14 -168 -14
-122 0 -165 3 -165 12 0 14 146 160 160 160 6 0 36 -25 67 -55z m-41 -175
c163 0 165 -3 60 -79 -34 -25 -61 -48 -61 -53 0 -4 -7 -8 -16 -8 -17 0 -174
116 -174 130 0 11 22 19 38 14 8 -2 76 -4 153 -4z m666 -3 c7 -8 -16 -47 -29
-47 -11 0 -120 -88 -126 -102 -9 -19 -40 -3 -123 63 -83 67 -95 79 -85 90 6 6
357 1 363 -4z m-463 -169 c0 -73 -2 -132 -5 -130 -2 1 -14 5 -26 8 -13 4 -23
9 -23 13 0 9 -97 81 -110 81 -5 0 -10 11 -10 24 0 16 12 31 38 48 20 14 49 37
64 51 31 29 60 47 68 42 3 -2 5 -63 4 -137z m-350 66 c84 -62 96 -81 63 -93
-21 -9 -119 -89 -125 -103 -2 -5 -10 -8 -17 -8 -11 0 -15 27 -17 123 -2 67 -2
125 0 130 6 15 24 6 96 -49z m478 5 c9 -9 37 -32 62 -50 51 -36 56 -51 26 -72
-11 -7 -42 -34 -70 -60 -78 -71 -80 -69 -80 81 0 71 3 132 7 135 6 7 25 -5 55
-34z m368 -94 c0 -145 -4 -149 -72 -84 -24 22 -53 44 -65 49 -42 17 -28 50 45
107 37 29 73 53 80 53 9 0 12 -32 12 -125z m-635 -76 c33 -25 68 -48 78 -52 9
-3 17 -14 17 -24 0 -17 -14 -18 -180 -18 -121 0 -180 3 -180 11 0 6 41 43 92
83 73 58 94 70 103 59 5 -8 37 -34 70 -59z m445 33 c0 -10 96 -82 110 -82 6 0
10 -9 8 -21 -3 -19 -9 -20 -143 -20 -79 0 -141 4 -143 9 -1 5 19 26 45 45 27
19 57 45 67 56 19 20 56 29 56 13z m-336 -181 c3 -5 -37 -46 -90 -90 l-96 -82
-31 32 c-18 17 -55 49 -84 71 -51 39 -67 60 -56 72 10 10 351 7 357 -3z m500
0 c6 -8 -30 -51 -42 -51 -7 0 -53 -39 -114 -95 -29 -28 -53 -32 -65 -12 -4 7
-39 37 -77 66 -84 63 -99 78 -92 90 7 11 384 13 390 2z m-836 -93 c32 -29 71
-63 85 -76 33 -27 27 -42 -29 -87 -21 -16 -57 -47 -79 -67 -25 -23 -45 -34
-51 -28 -12 12 -6 310 7 310 5 0 35 -24 67 -52z m366 -107 c1 -73 -2 -135 -6
-137 -6 -4 -60 36 -83 62 -5 6 -27 23 -47 39 -43 31 -48 51 -15 65 12 5 47 32
77 60 30 27 59 49 64 47 5 -2 10 -62 10 -136z m496 -1 c0 -150 -2 -153 -76
-89 -26 22 -57 47 -70 56 -13 8 -24 23 -24 33 0 10 11 25 24 33 13 9 44 34 70
56 74 64 76 61 76 -89z m-360 83 c28 -21 50 -40 50 -44 0 -4 9 -9 20 -12 27
-7 26 -41 -2 -60 -13 -9 -45 -36 -73 -61 -27 -25 -53 -42 -57 -40 -12 8 -10
254 2 254 6 0 33 -17 60 -37z"/>
</g>
</svg>
