<svg version="1.0" xmlns="http://www.w3.org/2000/svg"
 width="192.000000pt" height="192.000000pt" viewBox="0 0 192.000000 192.000000"
 preserveAspectRatio="xMidYMid meet">
<g transform="translate(0.000000,192.000000) scale(0.100000,-0.100000)">
<path class="icon-svg" d="M790 1649 c-90 -25 -139 -44 -152 -57 -7 -7 -18 -12 -25 -12 -7 0
-39 -26 -71 -57 -94 -93 -92 -81 -92 -620 l0 -458 123 -123 122 -122 264 0
c236 0 265 2 284 18 12 9 70 67 130 129 l107 111 -3 464 c-2 254 -7 478 -12
497 -8 36 -123 161 -148 161 -7 0 -18 5 -25 12 -14 14 -64 32 -157 58 -93 26
-254 25 -345 -1z m357 -89 c125 -39 200 -92 233 -166 19 -40 20 -67 20 -469
l0 -427 -97 -101 c-54 -56 -102 -105 -108 -109 -5 -4 -111 -8 -234 -8 l-224 0
-103 102 -104 102 0 438 c0 424 1 439 21 477 37 71 100 116 219 157 90 31 285
33 377 4z"/>
<path class="icon-svg" d="M646 1144 c-9 -24 -7 -427 3 -442 5 -9 30 -12 87 -10 l78 3 49 93
c27 52 46 97 42 100 -3 3 -24 5 -46 5 -59 -3 -60 14 -10 97 5 8 19 36 31 62
12 27 26 50 31 54 5 3 9 16 9 30 l0 24 -134 0 c-113 0 -135 -2 -140 -16z"/>
<path class="icon-svg" d="M1120 1138 c-8 -13 -25 -43 -37 -68 -13 -25 -29 -52 -35 -61 -6 -9
-8 -24 -5 -33 5 -13 15 -15 47 -10 29 5 40 3 40 -6 0 -7 -51 -64 -112 -127
-62 -62 -113 -121 -113 -129 0 -14 24 -16 185 -14 132 0 187 4 192 13 9 14 11
418 2 441 -5 13 -22 16 -78 16 -63 0 -73 -3 -86 -22z"/>
</g>
</svg>
